<svg version="1.2" xmlns="http://www.w3.org/2000/svg" viewBox="0 0 198 102" width="198" height="102">
	<title>Nytt projekt</title>
	<style>
		.s0 { fill: #f199b9 } 
		.s1 { fill: #2a0a16 } 
	</style>
	<path id="Form 1" class="s0" d="m31 50.5c0-12.4 10.1-22.5 22.5-22.5 12.4 0 22.5 10.1 22.5 22.5v1c0 12.4-10.1 22.5-22.5 22.5-12.4 0-22.5-10.1-22.5-22.5z"/>
	<path id="Blazor" class="s1" aria-label="Blazor"  d="m52.3 66h-9.3v-31.4h9.2q6 0 8.9 1.9 3 1.9 3 5.7 0 2.8-1.6 4.6-1.5 1.8-4.4 2.4v0.1q3.7 0.6 5.6 2.6 1.8 2 1.8 5.4 0 4.4-3.2 6.5-3.3 2.2-10 2.2zm-5.9-3.1h5.9q5.1 0 7.4-1.4 2.3-1.5 2.3-4.6 0-3.1-2.4-4.5-2.3-1.4-7.3-1.4h-7.6v-3.1h7.6q4.3 0 6.3-1.2 2-1.3 2-4 0-2.6-1.9-3.8-2-1.2-6.4-1.2h-5.9zm28.3 3.1h-3.4v-31.4h3.4zm12.8 0.4q-3.4 0-5.4-1.8-1.9-1.8-1.9-4.9 0-3.9 3.1-5.9 3.1-2.1 9-2.1h3.5q0-2.2-0.5-3.4-0.5-1.2-1.7-1.7-1.2-0.5-3.3-0.5-2.2 0-4.4 0.4-2.2 0.5-4.2 1.3l-0.6-2.7q2.1-0.9 4.6-1.4 2.4-0.5 5-0.5 3.2 0 5.1 0.8 1.8 0.9 2.6 2.8 0.8 1.9 0.8 5.2v14h-3.2l-0.1-3h-0.1q-1.1 1.5-3.4 2.5-2.4 0.9-4.9 0.9zm1.1-2.8q2 0 3.6-0.7 1.7-0.8 2.7-2.1 0.9-1.3 0.9-2.9v-3.6h-3.1q-4.6 0-6.9 1.3-2.3 1.3-2.3 3.8 0 2 1.3 3.1 1.4 1.1 3.8 1.1zm33.4 2.4h-17.9v-2.9l13.5-16.5v-0.1h-13.5v-2.8h17.9v2.8l-13.5 16.5v0.1h13.5zm15 0.5q-5.2 0-8.1-3.1-2.8-3-2.8-8.5 0-5.6 2.8-8.6 2.9-3.1 8.1-3.1 5.1 0 8 3.1 2.8 3 2.8 8.6 0 5.5-2.8 8.5-2.9 3.1-8 3.1zm0-2.9q3.6 0 5.5-2.3 2-2.2 2-6.4 0-4.3-2-6.5-1.9-2.3-5.5-2.3-3.6 0-5.6 2.3-2 2.2-2 6.5 0 4.2 2 6.4 2 2.3 5.6 2.3zm19.7 2.4h-3.4v-22.3h3.3v4.7h0.1q1-1.6 2.5-2.8 1.6-1.1 3.6-1.7 1.9-0.7 4.1-0.7v3.1q-2.8 0-5.1 1.1-2.4 1.2-3.7 3.1-1.4 1.9-1.4 4.4z"/>
</svg>